{"asset":{"version":"2.0","generator":"Blockbench 5.0.7 glTF exporter"},"scenes":[{"nodes":[0,5],"name":"blockbench_export"}],"scene":0,"nodes":[{"name":"body","mesh":0},{"rotation":[0.7071067811865475,0,0,0.7071067811865476],"translation":[0.53125,0.275,0.3375],"name":"wheel","mesh":1},{"rotation":[0.7071067811865475,0,0,0.7071067811865476],"translation":[-0.59375,0.275,0.3375],"name":"wheel","mesh":2},{"rotation":[0.7071067811865475,0,0,0.7071067811865476],"translation":[-0.59375,0.275,-0.475],"name":"wheel","mesh":3},{"rotation":[0.7071067811865475,0,0,0.7071067811865476],"translation":[0.53125,0.275,-0.475],"name":"wheel","mesh":4},{"name":"tyre","children":[1,2,3,4]}],"bufferViews":[{"buffer":0,"byteOffset":0,"byteLength":9984,"target":34962,"byteStride":12},{"buffer":0,"byteOffset":9984,"byteLength":9984,"target":34962,"byteStride":12},{"buffer":0,"byteOffset":19968,"byteLength":6656,"target":34962,"byteStride":8},{"buffer":0,"byteOffset":26624,"byteLength":2496,"target":34963},{"buffer":0,"byteOffset":29120,"byteLength":1440,"target":34962,"byteStride":12},{"buffer":0,"byteOffset":30560,"byteLength":1440,"target":34962,"byteStride":12},{"buffer":0,"byteOffset":32000,"byteLength":960,"target":34962,"byteStride":8},{"buffer":0,"byteOffset":32960,"byteLength":288,"target":34963},{"buffer":0,"byteOffset":33248,"byteLength":1440,"target":34962,"byteStride":12},{"buffer":0,"byteOffset":34688,"byteLength":1440,"target":34962,"byteStride":12},{"buffer":0,"byteOffset":36128,"byteLength":960,"target":34962,"byteStride":8},{"buffer":0,"byteOffset":37088,"byteLength":288,"target":34963},{"buffer":0,"byteOffset":37376,"byteLength":1440,"target":34962,"byteStride":12},{"buffer":0,"byteOffset":38816,"byteLength":1440,"target":34962,"byteStride":12},{"buffer":0,"byteOffset":40256,"byteLength":960,"target":34962,"byteStride":8},{"buffer":0,"byteOffset":41216,"byteLength":288,"target":34963},{"buffer":0,"byteOffset":41504,"byteLength":1440,"target":34962,"byteStride":12},{"buffer":0,"byteOffset":42944,"byteLength":1440,"target":34962,"byteStride":12},{"buffer":0,"byteOffset":44384,"byteLength":960,"target":34962,"byteStride":8},{"buffer":0,"byteOffset":45344,"byteLength":288,"target":34963}],"buffers":[{"byteLength":45632,"uri":"data:application/octet-stream;base64,"}],"accessors":[{"bufferView":0,"componentType":5126,"count":832,"max":[0.800000011920929,0.9375,0.40625],"min":[-1.1062500476837158,0.25,-0.40625],"type":"VEC3"},{"bufferView":1,"componentType":5126,"count":832,"max":[1,1,1],"min":[-1,-1,-1],"type":"VEC3"},{"bufferView":2,"componentType":5126,"count":832,"max":[0.90625,0.7946687936782837],"min":[0,0],"type":"VEC2"},{"bufferView":3,"componentType":5123,"count":1248,"max":[831],"min":[0],"type":"SCALAR"},{"bufferView":4,"componentType":5126,"count":120,"max":[0.15625,0.09375,0.15625],"min":[-0.15625,0.03125,-0.15625],"type":"VEC3"},{"bufferView":5,"componentType":5126,"count":120,"max":[1,1,1],"min":[-1,-1,-1],"type":"VEC3"},{"bufferView":6,"componentType":5126,"count":120,"max":[0.19411848485469818,0.19411849975585938],"min":[0,0],"type":"VEC2"},{"bufferView":7,"componentType":5123,"count":144,"max":[119],"min":[0],"type":"SCALAR"},{"bufferView":8,"componentType":5126,"count":120,"max":[0.15625,0.09375,0.15625],"min":[-0.15625,0.03125,-0.15625],"type":"VEC3"},{"bufferView":9,"componentType":5126,"count":120,"max":[1,1,1],"min":[-1,-1,-1],"type":"VEC3"},{"bufferView":10,"componentType":5126,"count":120,"max":[0.19411848485469818,0.19411849975585938],"min":[0,0],"type":"VEC2"},{"bufferView":11,"componentType":5123,"count":144,"max":[119],"min":[0],"type":"SCALAR"},{"bufferView":12,"componentType":5126,"count":120,"max":[0.15625,0.09375,0.15625],"min":[-0.15625,0.03125,-0.15625],"type":"VEC3"},{"bufferView":13,"componentType":5126,"count":120,"max":[1,1,1],"min":[-1,-1,-1],"type":"VEC3"},{"bufferView":14,"componentType":5126,"count":120,"max":[0.19411848485469818,0.19411849975585938],"min":[0,0],"type":"VEC2"},{"bufferView":15,"componentType":5123,"count":144,"max":[119],"min":[0],"type":"SCALAR"},{"bufferView":16,"componentType":5126,"count":120,"max":[0.15625,0.09375,0.15625],"min":[-0.15625,0.03125,-0.15625],"type":"VEC3"},{"bufferView":17,"componentType":5126,"count":120,"max":[1,1,1],"min":[-1,-1,-1],"type":"VEC3"},{"bufferView":18,"componentType":5126,"count":120,"max":[0.19411848485469818,0.19411849975585938],"min":[0,0],"type":"VEC2"},{"bufferView":19,"componentType":5123,"count":144,"max":[119],"min":[0],"type":"SCALAR"}],"materials":[{"pbrMetallicRoughness":{"metallicFactor":0,"roughnessFactor":1,"baseColorTexture":{"index":0}},"alphaMode":"MASK","alphaCutoff":0.05,"doubleSided":true},{"pbrMetallicRoughness":{"metallicFactor":0,"roughnessFactor":1,"baseColorTexture":{"index":1}},"alphaMode":"MASK","alphaCutoff":0.05,"doubleSided":true}],"textures":[{"sampler":0,"source":0,"name":"car"},{"sampler":1,"source":1,"name":"wheel"}],"samplers":[{"magFilter":9728,"minFilter":9728,"wrapS":33071,"wrapT":33071},{"magFilter":9728,"minFilter":9728,"wrapS":33071,"wrapT":33071}],"images":[{"mimeType":"image/png","uri":"data:image/png;base64,"},{"mimeType":"image/png","uri":"data:image/png;base64,"}],"meshes":[{"primitives":[{"mode":4,"attributes":{"POSITION":0,"NORMAL":1,"TEXCOORD_0":2},"indices":3,"material":0}]},{"primitives":[{"mode":4,"attributes":{"POSITION":4,"NORMAL":5,"TEXCOORD_0":6},"indices":7,"material":1}]},{"primitives":[{"mode":4,"attributes":{"POSITION":8,"NORMAL":9,"TEXCOORD_0":10},"indices":11,"material":1}]},{"primitives":[{"mode":4,"attributes":{"POSITION":12,"NORMAL":13,"TEXCOORD_0":14},"indices":15,"material":1}]},{"primitives":[{"mode":4,"attributes":{"POSITION":16,"NORMAL":17,"TEXCOORD_0":18},"indices":19,"material":1}]}]}